<?xml version="1.0" encoding="utf-8"?>
<!-- Generator: Adobe Illustrator 16.0.0, SVG Export Plug-In . SVG Version: 6.00 Build 0)  -->
<!DOCTYPE svg PUBLIC "-//W3C//DTD SVG 1.1//EN" "http://www.w3.org/Graphics/SVG/1.1/DTD/svg11.dtd">
<svg version="1.1" id="Ebene_1" xmlns="http://www.w3.org/2000/svg" xmlns:xlink="http://www.w3.org/1999/xlink" x="0px" y="0px"
	 width="475.609px" height="110.393px" viewBox="0 0 475.609 110.393" enable-background="new 0 0 475.609 110.393"
	 xml:space="preserve">
<g>
	<path d="M472.284,27.849c-3.886-0.162-7.771-0.469-11.655-0.441c-9.294,0.067-18.588,0.253-27.882,0.469
		c-7.717,0.178-15.43,0.465-23.144,0.708c-2.842,0.089-5.682,0.187-8.524,0.278c-4.896,0.156-9.789,0.319-14.684,0.461
		c-0.308,0.007-0.671-0.075-0.917-0.248c-2.176-1.518-4.479-2.795-7.011-3.595c-3.154-0.996-6.396-1.555-9.703-1.756
		c-6.256-0.382-12.384,0.546-18.464,1.837c-3.092,0.656-6.146,1.507-9.194,2.359c-3.428,0.958-6.824,2.016-10.237,3.028
		c-1.314,0.391-2.615,1-3.954,1.118c-3.154,0.283-6.33,0.322-9.496,0.472c-3.973,0.185-7.947,0.37-11.92,0.574
		c-3.386,0.176-6.768,0.389-10.15,0.57c-4.826,0.255-9.652,0.479-14.478,0.742c-7.708,0.419-15.415,0.862-23.119,1.29
		c-5.873,0.325-11.744,0.651-17.619,0.957c-1.132,0.06-2.3,0.208-3.397,0.008c-3.718-0.681-7.412-1.498-11.115-2.268
		c-1.024-0.214-1.005-0.223-1.137-1.298c-0.25-2.061-0.83-3.964-2.457-5.421c-0.776-0.697-1.6-0.908-2.593-0.648
		c-2.39,0.623-3.979,2.181-5.067,4.323c-0.458,0.903-0.542,0.95-1.51,0.802c-3.757-0.568-7.514-1.158-11.278-1.677
		c-3.332-0.46-6.675-0.851-10.016-1.237c-0.621-0.072-0.888-0.313-1.024-0.925c-0.165-0.739-0.438-1.468-0.762-2.155
		c-0.501-1.064-1.62-1.606-2.625-1.425c-1.837,0.335-3.181,1.416-4.228,2.865c-0.429,0.595-0.858,0.743-1.534,0.686
		c-2.418-0.201-4.84-0.353-7.26-0.525c-0.711-0.05-1.422-0.107-2.18-0.165c0.043-0.259,0.055-0.455,0.11-0.638
		c0.675-2.214,1.271-4.458,2.055-6.633c1.968-5.464,4.479-10.63,8.651-14.817c0.477-0.479,0.971-0.945,1.468-1.402
		c0.294-0.269,0.524-0.195,0.607,0.195c0.088,0.407,0.188,0.816,0.207,1.227c0.096,2.095,0.351,4.168,0.864,6.202
		c0.039,0.152,0.133,0.357,0.255,0.405c0.108,0.045,0.36-0.05,0.43-0.159c0.334-0.532,0.762-1.057,0.912-1.647
		c0.3-1.17,0.449-2.378,0.643-3.574c0.248-1.522,0.085-2.987-0.513-4.429c-0.604-1.46-1.909-2.118-3.417-1.727
		c-1.798,0.462-3.163,1.524-4.369,2.863c-3.781,4.195-6.511,9.036-8.546,14.26c-1.14,2.924-2.019,5.95-3.004,8.936
		c-0.144,0.435-0.246,0.759-0.853,0.759c-4.242,0.006-8.484,0.004-12.726,0.113c-4.302,0.112-8.605,0.309-12.904,0.539
		c-2.814,0.151-5.624,0.436-8.435,0.647c-0.719,0.055-0.846-0.087-0.822-0.805c0.004-0.153,0.026-0.305,0.052-0.455
		c0.501-2.927,0.939-5.868,1.532-8.776c0.367-1.796,0.958-3.537,2.216-4.977c0.418-0.478,0.722-1.083,0.965-1.676
		c0.108-0.261-0.032-0.644-0.118-0.958c-0.053-0.198-0.247-0.355-0.317-0.556c-0.194-0.556-0.617-0.661-1.102-0.541
		c-0.311,0.077-0.605,0.252-0.881,0.423c-2.041,1.277-3.175,3.207-3.819,5.452c-1.134,3.945-1.7,7.992-2.086,12.067
		c-0.108,1.146-0.095,1.15-1.255,1.306c-2.514,0.336-5.026,0.67-7.541,1c-0.948,0.125-1.9,0.23-2.954,0.356
		c0.021-0.264,0.021-0.414,0.038-0.561c0.217-1.33,0.533-2.652,0.638-3.991c0.332-4.175-1.085-7.819-3.631-11.05
		c-1.862-2.365-4.203-4.174-6.827-5.646c-2.856-1.6-5.843-2.856-9.026-3.618c-2.879-0.688-5.815-0.908-8.772-1.045
		c-4.801-0.224-9.572,0.006-14.324,0.675c-4.294,0.604-8.491,1.649-12.674,2.766c-4.312,1.151-8.552,2.521-12.642,4.289
		c-3.604,1.56-7.171,3.227-10.639,5.066c-4.206,2.231-8.344,4.6-12.408,7.081c-4.319,2.639-8.491,5.512-12.416,8.718
		c-3.059,2.498-6.103,5.025-8.63,8.083c-1.124,1.359-2.224,2.761-3.144,4.259c-1.833,2.984-1.986,6.312-1.671,9.695
		c0.012,0.129,0.041,0.259,0.084,0.381c0.467,1.315,1.046,2.554,1.911,3.688c2.049,2.688,4.656,4.64,7.704,5.991
		c1.505,0.668,3.104,1.126,4.675,1.64c2.614,0.856,5.322,1.179,8.052,1.354c7.326,0.464,14.403-0.888,21.347-3.041
		c3.036-0.942,6.008-2.091,9.007-3.15c2.84-1.003,5.661-2.063,8.524-2.993c1.782-0.58,3.615-0.982,5.529-0.929
		c1.899,0.054,3.804,0.057,5.701-0.02c1.741-0.073,3.382,0.297,4.986,0.879c2.871,1.039,5.086,2.908,7.012,5.276
		c2.914,3.59,4.995,7.642,6.881,11.796c1.341,2.959,2.447,6.028,3.556,9.086c1.461,4.021,2.755,8.103,4.252,12.109
		c0.821,2.198,1.868,4.313,2.894,6.428c0.696,1.435,1.955,2.108,3.537,2.005c0.502-0.032,1.2-0.245,1.415-0.609
		c0.214-0.363-0.037-1.022-0.143-1.542c-0.041-0.193-0.242-0.357-0.373-0.53c-0.314-0.421-0.726-0.798-0.93-1.265
		c-0.828-1.89-1.633-3.791-2.374-5.718c-0.833-2.175-1.593-4.381-2.381-6.574c-1.36-3.796-2.679-7.607-4.089-11.385
		c-1.466-3.935-3.283-7.704-5.467-11.299c-2.314-3.811-5.243-7.015-9.008-9.427c-0.216-0.139-0.437-0.267-0.733-0.445
		c0.319-0.197,0.385-0.26,0.463-0.284c2.407-0.77,4.848-1.445,7.216-2.318c4.027-1.486,7.828-3.439,11.408-5.828
		c0.752-0.502,1.468-1.088,2.511-1.142c5.173-0.271,10.345-0.634,15.517-0.946c2.598-0.157,5.198-0.264,7.793-0.419
		c0.594-0.035,0.731,0.193,0.743,0.747c0.108,5.579,0.432,11.142,1.227,16.672c0.438,3.051,1.248,5.996,2.458,8.811
		c0.864,2.007,2.381,3.488,4.477,4.28c1.654,0.625,3.376,0.855,4.951-0.031c1.04-0.583,1.88-1.529,2.784-2.34
		c0.327-0.293,0.582-0.669,0.958-1.113c0.55,0.607,0.97,1.179,1.495,1.627c1.208,1.028,2.7,1.377,4.226,1.628
		c1.191,0.196,2.34,0.088,3.484-0.303c2.116-0.727,3.833-2.006,5.432-3.548c3.454-3.328,6.692-6.846,9.688-10.589
		c0.291-0.364,0.482-0.791,1.072,0.065c0.095-0.633,0.125-1.024,0.225-1.397c0.053-0.198,0.205-0.495,0.354-0.523
		c0.393-0.074,0.808-0.023,1.314-0.023c0,0.539-0.009,0.951,0.002,1.359c0.067,2.461,0.916,3.601,3.165,4.522
		c1.491,0.611,2.981,0.53,4.516,0.329c0.382-0.049,0.839-0.017,1.177,0.153c2.402,1.205,4.943,1.793,7.607,1.546
		c1.486-0.141,2.973-0.505,4.411-0.931c3.811-1.132,7.208-3.128,10.443-5.369c2.742-1.903,5.348-4.003,8.012-6.017
		c0.432-0.323,0.853-0.658,1.305-1.007c0.127,0.169,0.225,0.283,0.303,0.41c0.699,1.159,1.347,2.354,2.103,3.476
		c1.863,2.759,4.122,5.172,6.869,7.056c3.259,2.235,6.807,3.914,10.553,5.192c4.96,1.693,10.062,2.668,15.279,2.933
		c8.397,0.425,16.786,0.38,25.148-0.718c4.21-0.552,8.389-1.229,12.455-2.479c3.754-1.154,7.397-2.544,10.665-4.787
		c1.405-0.964,2.705-2.012,3.478-3.579c0.511-1.034,0.919-2.113,0.637-3.278c-0.359-1.494-1.104-2.778-2.244-3.85
		c-1.891-1.776-4.098-3.029-6.457-4.054c-0.591-0.255-1.154-0.566-1.9-0.935c0.777-0.409,1.363-0.78,1.994-1.04
		c3.554-1.465,7.1-2.939,10.681-4.341c4.455-1.741,8.925-3.449,13.412-5.109c3.727-1.379,7.481-2.697,11.244-3.979
		c0.916-0.312,1.905-0.434,2.87-0.556c0.821-0.104,1.658-0.079,2.49-0.119c7.928-0.375,15.859-0.747,23.79-1.126
		c4.912-0.235,9.829-0.474,14.743-0.723c3.887-0.195,7.774-0.405,11.662-0.621c0.61-0.034,1.176,0.021,1.646,0.468
		c1.078,1.019,2.274,1.934,3.217,3.063c1.435,1.718,2.759,3.542,4.012,5.402c0.727,1.077,1.284,2.281,1.811,3.476
		c0.841,1.915,1.664,3.846,2.362,5.815c0.537,1.515,0.81,3.121,1.299,4.656c0.846,2.659,1.264,5.392,1.573,8.153
		c0.057,0.486,0.291,0.984,0.558,1.405c0.263,0.411,0.775,0.339,1.092-0.054c0.806-0.996,0.986-2.153,0.933-3.392
		c-0.226-5.429-1.526-10.617-3.536-15.638c-1.047-2.617-2.314-5.135-3.875-7.481c-1.031-1.557-2.218-3.012-3.336-4.51
		c-0.356-0.477-0.724-0.947-1.141-1.492c0.309-0.034,0.499-0.067,0.69-0.077c2.971-0.122,5.939-0.25,8.909-0.355
		c5.549-0.198,11.104-0.389,16.652-0.576c4.48-0.151,8.962-0.287,13.441-0.433c5.551-0.182,11.102-0.364,16.652-0.552
		c3.541-0.119,7.081-0.231,10.619-0.38c3.317-0.137,6.641-0.255,9.951-0.503c2.216-0.165,4.413-0.537,6.619-0.821
		c0.06-0.007,0.111-0.057,0.162-0.084C473.116,28.027,472.923,27.875,472.284,27.849z M94.476,49.285
		c-2.706,1.154-5.384,2.399-8.163,3.35c-2.236,0.764-4.597,1.166-6.912,1.692c-0.914,0.207-1.845,0.407-2.776,0.444
		c-1.547,0.061-3.098-0.062-4.646-0.018c-1.764,0.053-3.523,0.208-5.287,0.303c-0.456,0.025-0.924,0.044-1.372-0.028
		c-1.549-0.257-3.111-0.473-4.627-0.863c-1.385-0.357-2.763-0.824-4.062-1.421c-1.793-0.821-3.602-1.671-5.243-2.754
		c-3.9-2.575-6.199-6.171-6.089-10.967c0.038-1.59,0.462-3.187,0.847-4.748c0.833-3.389,2.452-6.443,4.296-9.37
		c1.083-1.718,2.285-3.372,3.933-4.619c0.571-0.433,1.182-0.838,1.829-1.137c1.782-0.82,2.764-0.525,3.733,1.743
		c0.453,1.054,0.491,2.286,0.706,3.439c0.064,0.339,0.093,0.686,0.146,1.096c0.227-0.09,0.395-0.158,0.69-0.275
		c0,0.513,0,0.975,0,1.434c0.075,0.006,0.15,0.012,0.223,0.019c0.117-0.339,0.313-0.674,0.332-1.019
		c0.118-2.167,0.026-4.265-0.868-6.349c-0.623-1.454-1.651-2.338-2.886-3.018c-1.003-0.551-2.104-0.25-3.129,0.281
		c-2.426,1.255-4.33,3.139-5.951,5.252c-1.494,1.947-2.822,4.044-4.024,6.186c-1.689,3.009-2.575,6.295-2.75,9.752
		c-0.072,1.392-0.313,2.821-0.086,4.168c0.405,2.411,1.433,4.625,2.979,6.553c1.627,2.031,3.572,3.735,5.811,5.041
		c1.597,0.932,3.312,1.67,5,2.435c0.886,0.402,1.826,0.677,2.896,1.069c-0.303,0.165-0.469,0.288-0.655,0.356
		c-4.372,1.638-8.697,3.417-13.132,4.864c-6.189,2.02-12.542,3.29-19.107,3.198c-3.163-0.045-6.291-0.401-9.32-1.287
		c-3.022-0.885-5.968-2.072-8.37-4.166c-2.171-1.894-3.997-4.089-3.748-7.276c0.136-1.737,0.659-3.365,1.393-4.948
		c1.558-3.354,4.05-5.98,6.581-8.574c2.753-2.825,5.823-5.279,9.086-7.487c3.285-2.227,6.549-4.494,9.913-6.596
		c2.865-1.79,5.822-3.445,8.813-5.018c2.914-1.53,5.886-2.966,8.899-4.286c4.458-1.953,9.041-3.583,13.727-4.912
		c4.122-1.17,8.283-2.169,12.534-2.739c5.411-0.723,10.844-1,16.292-0.494c3.787,0.351,7.471,1.133,10.907,2.845
		c2.456,1.224,4.736,2.72,6.674,4.666c2.259,2.268,3.59,5.044,4.3,8.165c0.592,2.607,0.204,5.068-0.729,7.507
		c-0.195,0.512-0.567,0.667-1.049,0.745c-2.309,0.379-4.624,0.72-6.92,1.168c-2.935,0.573-5.865,1.176-8.772,1.873
		c-4.93,1.177-9.865,2.337-14.747,3.696c-4.117,1.145-8.17,2.529-12.23,3.872c-0.985,0.325-1.934,0.826-2.811,1.385
		c-0.543,0.348-0.919,0.955-1.287,1.354c0.235,1.177,1.057,1.573,1.778,2.042c1.481,0.959,3.167,1.434,4.88,1.595
		c2.627,0.247,5.275,0.427,7.909,0.378c4.017-0.075,8.026-0.366,12.04-0.57c1.244-0.064,2.489-0.142,3.734-0.212
		c0.164-0.009,0.327-0.001,0.49-0.001c0.024,0.062,0.049,0.125,0.073,0.188C95.608,48.623,95.075,49.029,94.476,49.285z
		 M61.206,24.688c0-0.36,0-0.722,0-1.083c0.06,0.011,0.118,0.022,0.176,0.032c0,0.35,0,0.698,0,1.048
		C61.324,24.685,61.265,24.686,61.206,24.688z M103.132,43.393c-0.962,0.876-1.954,1.202-3.223,1.252
		c-3.23,0.126-6.454,0.467-9.684,0.592c-4.823,0.189-9.647,0.307-14.473,0.368c-1.253,0.017-2.513-0.272-3.766-0.446
		c-0.187-0.025-0.35-0.192-0.525-0.293c0.149-0.139,0.276-0.341,0.454-0.404c1.493-0.554,2.982-1.125,4.499-1.61
		c6.446-2.066,12.958-3.896,19.572-5.34l14.099-2.934c0.245-0.05,0.499-0.055,0.895-0.096c-0.237,0.4-0.377,0.69-0.563,0.949
		C108.291,38.362,105.812,40.961,103.132,43.393z M128.605,33.246c-0.102,2.862-0.187,5.726-0.277,8.587
		c-0.03,0.927-0.032,0.945-0.954,1.001c-2.419,0.146-4.839,0.267-7.257,0.421c-2.923,0.188-5.845,0.396-8.766,0.599
		c-0.912,0.064-1.822,0.143-2.733,0.206c-0.228,0.018-0.458,0.003-0.858,0.003c0.667-0.697,1.22-1.271,1.768-1.848
		c2.343-2.461,4.505-5.058,6.095-8.084c0.216-0.413,0.506-0.608,0.958-0.67c3.546-0.502,7.085-1.039,10.635-1.522
		C128.666,31.738,128.656,31.786,128.605,33.246z M131.778,37.516c0.02,0,0.042,0,0.062-0.002c0.118-1.833,0.249-3.664,0.341-5.496
		c0.031-0.617,0.255-0.861,0.901-0.914c2.94-0.23,5.874-0.514,8.81-0.788c0.796-0.075,1.084,0.205,0.781,0.93
		c-0.953,2.269-1.839,4.556-3.572,6.42c-1.153,1.238-2.12,2.657-3.096,4.048c-0.36,0.513-0.757,0.737-1.342,0.737
		c-0.787-0.002-1.571-0.008-2.354,0.017c-0.535,0.017-0.53-0.322-0.53-0.693C131.78,40.356,131.778,38.936,131.778,37.516z
		 M142.453,41.743c-0.064,0.208-0.726,0.234-1.115,0.342c-0.052-0.063-0.104-0.13-0.158-0.193c0.341-0.672,0.679-1.344,1.02-2.015
		c0.07,0.009,0.139,0.019,0.208,0.028C142.708,40.497,142.629,41.164,142.453,41.743z M131.826,48.98
		c0-0.948-0.012-1.897,0.017-2.844c0.003-0.09,0.248-0.235,0.391-0.249c0.382-0.033,0.77-0.011,1.29-0.011
		c-0.521,1.107-0.996,2.117-1.469,3.124C131.979,48.995,131.9,48.988,131.826,48.98z M143.511,68.874
		c-0.908,1.432-1.772,2.902-2.798,4.248c-0.829,1.088-2.201,1.081-3.263,0.161c-1.622-1.402-2.512-3.246-3.165-5.244
		c-1.209-3.704-1.652-7.54-2.02-11.39c-0.023-0.238-0.006-0.481-0.037-0.72c-0.071-0.532,0.038-0.785,0.679-0.9
		c0.77-0.137,1.431-0.642,1.84-1.357c0.69-1.211,1.362-2.435,2.028-3.659c0.739-1.362,1.452-2.737,2.205-4.09
		c0.096-0.174,0.358-0.339,0.559-0.357c0.782-0.073,1.572-0.076,2.358-0.125c0.452-0.028,0.485,0.236,0.478,0.582
		c-0.041,1.682-0.075,3.364-0.104,5.048c-0.01,0.611-0.001,1.224-0.001,1.836c0.084,5.144,0.333,10.271,1.285,15.342
		C143.594,68.448,143.612,68.715,143.511,68.874z M147.763,29.855c3.734-0.098,7.468-0.226,11.202-0.263
		c2.421-0.024,4.844,0.09,7.265,0.147c0.218,0.006,0.434,0.055,0.65,0.072c0.39,0.029,0.528,0.224,0.455,0.609
		c-0.211,1.116-0.426,2.229-0.61,3.348c-0.327,1.982-0.66,3.963-0.937,5.951c-0.173,1.24-0.151,1.283-1.359,1.333
		c-4.059,0.162-8.118,0.306-12.177,0.477c-0.507,0.022-0.66-0.174-0.772-0.638c-0.422-1.712-0.825-3.437-1.392-5.102
		c-0.265-0.78-0.807-1.514-1.381-2.121c-0.372-0.392-1.01-0.571-1.562-0.734c-0.363-0.109-0.502-0.242-0.516-0.61
		c-0.029-0.739-0.098-1.477-0.16-2.336C146.906,29.94,147.333,29.868,147.763,29.855z M146.234,40.333
		c0.076-1.362,0.208-2.72,0.322-4.079c0.001-0.031,0.063-0.055,0.168-0.144c0.101,0.157,0.239,0.294,0.284,0.456
		c0.423,1.507,0.831,3.02,1.243,4.527c0.128,0.47-0.103,0.618-0.533,0.66C146.167,41.898,146.147,41.905,146.234,40.333z
		 M146.502,62.309c-0.06-0.009-0.121-0.019-0.18-0.027c-0.141-1.559-0.377-3.113-0.403-4.672c-0.062-3.778-0.035-7.558-0.02-11.338
		c0.003-0.983,0.115-1.047,1.125-1.058c0.086,0,0.175,0.011,0.263,0.003c1.558-0.113,1.533-0.112,1.661,1.42
		c0.431,5.188-0.459,10.181-2.15,15.063C146.724,61.913,146.602,62.106,146.502,62.309z M167.96,59.338
		c-1.073,1.266-2.086,2.589-3.214,3.803c-2.1,2.255-4.229,4.483-6.418,6.648c-1.035,1.026-2.173,1.983-3.386,2.781
		c-1.495,0.985-3.178,1.105-4.795,0.246c-0.51-0.271-0.972-0.762-1.277-1.262c-0.475-0.772-0.826-1.629-1.163-2.476
		c-0.087-0.219,0.017-0.566,0.134-0.806c2.102-4.196,3.539-8.602,4.205-13.25c0.417-2.912,0.412-5.838,0.115-8.765
		c-0.001-0.021-0.006-0.042-0.009-0.063c-0.165-1.273-0.16-1.258,1.106-1.319c3.625-0.175,7.251-0.367,10.874-0.551
		c0.176-0.01,0.35-0.006,0.524-0.026c0.466-0.059,0.606,0.142,0.594,0.601c-0.03,1.049-0.011,2.098-0.011,3.146
		c0.011,2.445-0.053,4.916,0.689,7.28c0.389,1.237,0.849,2.493,1.987,3.306C168.229,58.849,168.187,59.071,167.96,59.338z
		 M190.504,36.295c0.054,0,0.108-0.001,0.161-0.001c0.077,0.406,0.145,0.816,0.233,1.22c0.045,0.211,0.134,0.413,0.19,0.623
		c0.108,0.409,0.209,0.821,0.313,1.231c-0.541,0.082-1.08,0.163-1.794,0.271C189.943,38.395,190.223,37.346,190.504,36.295z
		 M182.444,37.688c0.208-0.823,0.479-1.639,0.588-2.476c0.207-1.593,1.203-2.776,1.96-4.089c0.054-0.092,0.144-0.172,0.233-0.226
		c0.328-0.201,1.733,0.067,2.086,0.42c-0.193,0.129-0.382,0.253-0.647,0.429c0.712,0.159,0.677,0.635,0.653,1.164
		c-0.095,2.26-0.849,4.357-1.587,6.456c-0.058,0.164-0.224,0.402-0.356,0.413c-1.119,0.092-2.243,0.136-3.529,0.205
		C182.078,39.099,182.267,38.395,182.444,37.688z M174.322,47.528c-0.175,0.745-0.411,1.488-0.465,2.243
		c-0.1,1.402-0.775,2.519-1.552,3.611c-0.506,0.714-1.008,1.428-1.489,2.155c-0.258,0.392-0.496,0.35-0.669-0.019
		c-0.312-0.669-0.697-1.337-0.838-2.048c-0.585-2.941-0.477-5.915-0.228-8.883c0.014-0.183,0.287-0.477,0.459-0.491
		c1.847-0.137,3.697-0.229,5.687-0.342C174.9,45.116,174.604,46.32,174.322,47.528z M175.789,40.346
		c-1.94,0.08-3.882,0.183-5.822,0.29c-0.486,0.026-0.473-0.243-0.419-0.586l0.923-5.954c0.206-1.226,0.503-2.435,0.736-3.659
		c0.086-0.459,0.255-0.665,0.779-0.62c2.479,0.206,4.962,0.359,7.44,0.554c0.425,0.034,0.841,0.175,1.309,0.28
		c-0.856,1.698-1.704,3.272-2.454,4.895c-0.64,1.383-1.182,2.814-1.735,4.236C176.398,40.161,176.208,40.331,175.789,40.346z
		 M177.015,62.804c-0.58-1.386-0.385-2.834-0.207-4.257c0.318,1.521,0.638,3.04,0.998,4.755
		C177.475,63.105,177.104,63.014,177.015,62.804z M180.069,47.512c-0.056-0.176-0.215-0.447-0.325-0.447
		c-0.199,0-0.485,0.122-0.586,0.284c-0.385,0.621-0.712,1.279-1.059,1.924c-0.05-0.015-0.1-0.029-0.149-0.042
		c0.127-0.311,0.238-0.628,0.382-0.929c0.677-1.416,1.378-2.819,2.036-4.244c0.178-0.384,0.396-0.588,0.824-0.604
		c0.845-0.032,1.687-0.09,2.53-0.138c0.053,0.054,0.105,0.107,0.159,0.161c-1.083,1.837-2.166,3.674-3.248,5.511
		c-0.062-0.023-0.121-0.044-0.181-0.065C180.328,48.452,180.22,47.975,180.069,47.512z M182.004,61.809
		c-0.573,0.479-0.804,0.458-0.983-0.264c-0.309-1.241-0.514-2.506-0.744-3.765c-0.042-0.232-0.006-0.479-0.006-0.722
		c-0.008,0-0.016,0-0.022,0c0.028-0.523,0.022-1.051,0.101-1.565c0.042-0.286,0.163-0.602,0.351-0.814
		c2.003-2.27,3.668-4.775,5.22-7.359c0.706-1.176,1.321-2.407,1.952-3.625c0.222-0.425,0.464-0.671,0.994-0.671
		c0.917,0,1.834-0.065,2.746-0.154c0.577-0.058,0.751,0.183,0.808,0.718c0.304,2.866-0.24,5.582-1.562,8.112
		c-1.941,3.708-4.648,6.791-7.939,9.368C182.611,61.308,182.307,61.557,182.004,61.809z M211.378,52.057
		c-2.304,1.796-4.544,3.679-6.896,5.411c-1.946,1.432-3.965,2.785-6.045,4.015c-2.359,1.395-4.74,2.795-7.447,3.463
		c-1.897,0.468-3.788,0.668-5.676-0.019c-0.301-0.106-0.578-0.28-1.027-0.502c1.127-0.958,2.113-1.844,3.148-2.671
		c3.129-2.5,5.471-5.635,7.308-9.149c0.899-1.721,1.26-3.631,1.312-5.57c0.03-1.153-0.064-2.312-0.147-3.464
		c-0.057-0.78-0.001-0.956,0.794-1.021c1.741-0.141,3.487-0.223,5.231-0.32c2.683-0.154,5.365-0.304,8.05-0.452
		c0.255-0.014,0.511-0.002,0.847-0.002c-0.041,0.758-0.071,1.446-0.114,2.134c-0.144,2.326,0.295,4.569,1.002,6.767
		C211.895,51.231,211.888,51.66,211.378,52.057z M211.557,38.064c-0.077,0.207-0.508,0.384-0.788,0.401
		c-3.164,0.209-6.328,0.396-9.493,0.565c-1.854,0.098-3.712,0.144-5.567,0.241c-0.529,0.027-0.862-0.11-1.021-0.651
		c-0.621-2.1-1.905-3.756-3.501-5.205c-0.322-0.294-0.441-1.578-0.112-1.834c0.219-0.169,0.611-0.191,0.914-0.16
		c1.327,0.126,2.653,0.27,3.975,0.453c3.897,0.542,7.796,1.079,11.686,1.673c1.593,0.244,3.165,0.632,4.745,0.958
		c0.079,0.016,0.149,0.073,0.282,0.14C212.309,35.798,211.977,36.948,211.557,38.064z M225.21,36.639
		c0.893,0.166,1.785,0.352,2.678,0.619c-1.104,0.388-2.25,0.076-3.349,0.286C224.366,36.633,224.472,36.5,225.21,36.639z
		 M219.78,30.613c0.096-0.08,0.534,0.034,0.563,0.131c0.229,0.764,0.412,1.541,0.565,2.323c0.016,0.092-0.251,0.35-0.362,0.335
		c-0.827-0.102-1.652-0.255-2.604-0.413C218.422,31.938,219.036,31.218,219.78,30.613z M216.657,35.533
		c0.082-0.18,0.461-0.351,0.675-0.321c0.967,0.137,1.926,0.336,2.883,0.538c0.42,0.089,0.828,0.255,0.671,0.819
		c-0.145,0.523,0.152,1.344-0.828,1.35c-1.385,0.008-2.767,0.002-4.321,0.002C216.06,37.053,216.317,36.273,216.657,35.533z
		 M215.237,47.811c-0.509-1.946-0.646-3.873-0.43-5.816c0.019-0.163,0.238-0.422,0.385-0.437c1.402-0.146,2.808-0.252,4.391-0.382
		C218.477,43.768,216.984,45.863,215.237,47.811z M295.087,56.02c0.625,0.571,1.206,1.209,1.704,1.894
		c0.828,1.132,0.695,2.466-0.232,3.776c-0.838,1.188-1.881,2.104-3.212,2.716c-1.662,0.762-3.258,1.694-4.964,2.332
		c-2.426,0.904-4.898,1.725-7.409,2.365c-3.661,0.934-7.404,1.484-11.177,1.77c-6.175,0.468-12.356,0.635-18.548,0.351
		c-4.817-0.223-9.584-0.783-14.234-2.099c-4.472-1.265-8.633-3.183-12.381-5.963c-3.586-2.66-6.108-6.115-7.911-10.176
		c-0.468-1.056-0.284-1.622,0.462-2.416c2.365-2.528,4.548-5.22,5.81-8.494c0.364-0.948,0.87-1.238,1.817-1.288
		c4.912-0.256,9.825-0.535,14.732-0.889c1.753-0.125,3.383,0.33,5.038,0.701c6.673,1.499,13.348,2.981,19.998,4.562
		c4.612,1.097,9.193,2.332,13.778,3.539c1.023,0.269,2.014,0.673,3.22,1.084c-0.348,0.233-0.521,0.391-0.724,0.48
		c-3.132,1.399-6.261,2.795-9.396,4.179c-2.857,1.262-5.722,2.502-8.575,3.77c-1.854,0.82-3.688,1.686-5.545,2.5
		c-0.697,0.304-1.42,0.577-2.156,0.767c-0.686,0.176-1.278,0.53-1.272,1.211c0.007,0.623,0.265,1.315,0.607,1.852
		c0.387,0.609,1.056,0.672,1.757,0.409c2.142-0.804,4.371-1.19,6.634-1.496c1.865-0.252,3.684-0.801,5.097-2.159
		c0.358-0.345,0.492-0.908,0.792-1.33c0.251-0.356,0.53-0.779,0.896-0.955c3.075-1.464,6.171-2.883,9.266-4.305
		c2.124-0.976,4.266-1.916,6.38-2.911c0.655-0.307,1.236-0.398,1.935-0.106C290.043,52.848,292.833,53.957,295.087,56.02z
		 M314.572,36.566c-4.507,1.718-9.044,3.354-13.517,5.157c-4.898,1.973-9.741,4.089-14.602,6.16
		c-0.767,0.329-1.464,0.419-2.322,0.177c-4.749-1.348-9.507-2.68-14.294-3.886c-5.827-1.468-11.684-2.807-17.528-4.204
		c-0.476-0.115-0.951-0.248-1.421-0.477c21.615-1.702,43.255-2.661,64.892-3.745c0.018,0.083,0.039,0.165,0.06,0.248
		C315.416,36.188,315.004,36.4,314.572,36.566z M378.461,29.681c-11.827,0.543-23.65,1.087-35.477,1.631
		c-0.015-0.087-0.03-0.174-0.045-0.26c0.161-0.07,0.316-0.162,0.486-0.207c5.279-1.387,10.598-2.614,16.023-3.245
		c4.745-0.552,9.509-0.686,14.212,0.417c1.504,0.353,2.98,0.825,4.466,1.249c0.131,0.037,0.244,0.13,0.365,0.196
		C378.482,29.535,378.47,29.608,378.461,29.681z"/>
	<path d="M125.902,106.548c-0.215,0.146-0.4,0.34-0.619,0.48c-0.39,0.253-0.703,0.095-0.83-0.294
		c-0.242-0.744-0.51-1.496-0.612-2.266c-0.345-2.598-0.673-5.199-0.901-7.809c-0.125-1.432-0.153-2.929,0.491-4.255
		c0.943-1.943,0.386-3.777-0.183-5.633c-0.123-0.399-0.452-0.558-0.892-0.462c-0.979,0.218-1.309,0.637-1.543,1.764
		c-0.187,0.891-0.395,1.793-0.736,2.631c-0.555,1.364-1.134,2.692-1.025,4.219c0.07,0.979,0.014,1.966,0.014,2.682
		c0.284,3.765,0.736,7.23,1.836,10.571c0.672,2.044,3.349,2.86,5.065,1.652c0.891-0.627,1.363-1.999,1.021-2.976
		C126.841,106.435,126.302,106.275,125.902,106.548z"/>
</g>
</svg>
