<?xml version="1.0" encoding="utf-8"?>
<!-- Generator: Adobe Illustrator 16.0.0, SVG Export Plug-In . SVG Version: 6.00 Build 0)  -->
<!DOCTYPE svg PUBLIC "-//W3C//DTD SVG 1.1//EN" "http://www.w3.org/Graphics/SVG/1.1/DTD/svg11.dtd">
<svg version="1.1" id="Ebene_1" xmlns="http://www.w3.org/2000/svg" xmlns:xlink="http://www.w3.org/1999/xlink" x="0px" y="0px"
	 width="32px" height="32px" viewBox="0 0 32 32" enable-background="new 0 0 32 32" xml:space="preserve">
<g>
	<circle fill="#EA3D94" cx="16" cy="16" r="16"/>
</g>
<g>
	<rect x="-0.548" y="-1.673" fill="none" width="22.063" height="28.687"/>
</g>
<g enable-background="new    ">
	<path fill="#FFFFFF" d="M13.627,2.258c0.63,0.16,1.245,0.37,1.845,0.63c0.62,0.28,1.129,0.42,1.53,0.42
		c-0.119,0.4-0.245,1.035-0.375,1.905s-0.185,1.545-0.165,2.024h-1.26c0.1-0.26,0.15-0.6,0.15-1.02c0-1.16-0.405-2.025-1.215-2.596
		c-0.81-0.569-1.895-0.854-3.255-0.854c-1.3,0-2.475,0.41-3.525,1.229c-1.05,0.82-1.885,2.04-2.505,3.66
		c-0.62,1.62-0.93,3.57-0.93,5.851c0,2.1,0.405,3.66,1.215,4.68c0.81,1.021,1.975,1.53,3.495,1.53c0.859,0,1.57-0.1,2.13-0.3
		c0.56-0.2,1.129-0.561,1.71-1.08l0.69-4.801v-0.21c0-0.3-0.14-0.449-0.42-0.449l-1.74,0.06l0.12-0.87h6.78l-0.12,0.87l-1.261-0.06
		c-0.14,0-0.265,0.064-0.375,0.194c-0.11,0.131-0.175,0.275-0.195,0.436l-0.81,5.67c-0.12-0.02-0.26-0.03-0.42-0.03
		c-0.26,0-0.72,0.131-1.38,0.39c-0.72,0.301-1.451,0.54-2.19,0.721c-0.74,0.18-1.661,0.27-2.76,0.27c-2.38,0-4.22-0.635-5.52-1.905
		c-1.3-1.27-1.95-3.124-1.95-5.564c0-3.54,0.895-6.265,2.685-8.175s4.295-2.865,7.515-2.865C12.162,2.018,12.997,2.098,13.627,2.258
		z"/>
</g>
<g>
	<rect x="9.937" y="8.111" fill="none" width="22.063" height="28.687"/>
</g>
<g enable-background="new    ">
	<path fill="#FFFFFF" d="M30.217,13.001l-1.2-0.061c-0.32,0-0.511,0.21-0.57,0.63l-2.1,14.971v0.21c0,0.3,0.13,0.45,0.39,0.45
		l1.2-0.061l-0.12,0.87h-6.449l0.119-0.87l1.471,0.061c0.34,0,0.539-0.221,0.6-0.66l1.02-7.351h-8.43l-1.02,7.351v0.149
		c0,0.341,0.15,0.511,0.45,0.511l1.47-0.061l-0.12,0.87h-6.45l0.12-0.87l1.17,0.061c0.34,0,0.54-0.221,0.6-0.66l2.1-14.971
		l0.03-0.18c0-0.319-0.15-0.47-0.45-0.45l-1.17,0.061l0.12-0.9h6.45l-0.12,0.9l-1.47-0.061c-0.16,0-0.296,0.056-0.405,0.165
		c-0.109,0.11-0.185,0.266-0.225,0.465l-0.96,6.78h8.43l0.96-6.78v-0.149c0-0.32-0.14-0.48-0.42-0.48l-1.47,0.061l0.12-0.9h6.449
		L30.217,13.001z"/>
</g>
</svg>
